<svg width="50" height="50" viewBox="0 0 50 50" fill="none" xmlns="http://www.w3.org/2000/svg">
<path d="M18.5425 14.3062C18.5425 16.4542 16.8013 18.1954 14.6533 18.1954C12.5053 18.1954 10.7641 16.4542 10.7641 14.3062C10.7641 12.1582 12.5053 10.417 14.6533 10.417C16.8013 10.417 18.5425 12.1582 18.5425 14.3062Z" fill="#025F96"/>
<path fill-rule="evenodd" clip-rule="evenodd" d="M10.1 27.0776C9.49007 28.0529 8.20471 28.3498 7.22921 27.7401C6.2535 27.1304 5.95689 25.845 6.56671 24.8693L6.57056 24.8632L6.57796 24.8514L6.60308 24.8117C6.62431 24.7784 6.6544 24.7314 6.69248 24.6726C6.76853 24.5555 6.87695 24.3907 7.01063 24.1941C7.27597 23.804 7.65025 23.2746 8.0752 22.737C8.4904 22.2117 9.00095 21.6184 9.54059 21.1371C9.81033 20.8966 10.1357 20.6401 10.5027 20.4343C10.8489 20.2401 11.3901 20.001 12.0509 20.001H17.2556C17.9166 20.001 18.4578 20.2401 18.804 20.4343C19.1709 20.6401 19.4964 20.8966 19.7661 21.1371C20.3057 21.6184 20.8163 22.2117 21.2315 22.737C21.6565 23.2746 22.0307 23.804 22.296 24.1941C22.4297 24.3907 22.5381 24.5555 22.6142 24.6726C22.6523 24.7314 22.6823 24.7784 22.7036 24.8117L22.7288 24.8514L22.7362 24.8632L22.7394 24.8684C22.7394 24.8684 22.7036 24.8117 22.74 24.8693C23.3498 25.845 23.0531 27.1304 22.0775 27.7401C21.1019 28.3498 19.8168 28.0535 19.2069 27.0781L19.2039 27.0733L19.1878 27.0479C19.1728 27.0243 19.1494 26.9877 19.1184 26.94C19.0933 26.9013 19.0633 26.8554 19.0289 26.8032V29.3906L19.7823 37.3022C19.8896 38.4287 19.0781 39.4348 17.9545 39.5685C16.8309 39.7021 15.806 38.9145 15.6459 37.7943L14.5833 30.3561L13.5207 37.7943C13.3607 38.9145 12.3358 39.7021 11.2122 39.5685C10.0886 39.4348 9.27714 38.4287 9.38442 37.3022L10.2585 28.1247H10.2781V26.8027C10.2435 26.855 10.2134 26.9012 10.1882 26.94C10.1573 26.9877 10.1339 27.0243 10.1189 27.0479L10.1028 27.0733L10.1 27.0776Z" fill="#025F96"/>
<path d="M39.3751 14.3058C39.3751 16.4537 37.634 18.1948 35.4861 18.1948C33.3384 18.1948 31.5973 16.4537 31.5973 14.3058C31.5973 12.1581 33.3384 10.417 35.4861 10.417C37.634 10.417 39.3751 12.1581 39.3751 14.3058Z" fill="#025F96"/>
<path fill-rule="evenodd" clip-rule="evenodd" d="M30.9388 26.8596C30.3337 27.838 29.0499 28.1413 28.0713 27.5364C27.0926 26.9314 26.7897 25.6475 27.3946 24.6689L27.3984 24.6627L27.4057 24.651L27.4306 24.6113C27.4515 24.5779 27.4813 24.5308 27.5189 24.4722C27.5942 24.355 27.7013 24.1903 27.8335 23.9938C28.0959 23.6038 28.4661 23.0743 28.8864 22.5367C29.297 22.0115 29.8022 21.4177 30.3368 20.9357C30.6038 20.6949 30.9269 20.4373 31.2922 20.2302C31.6361 20.0351 32.1785 19.792 32.8432 19.792H37.9902C38.6549 19.792 39.1973 20.0351 39.5412 20.2302C39.9065 20.4373 40.2297 20.6949 40.4968 20.9357C41.0312 21.4177 41.5364 22.0115 41.9471 22.5367C42.3673 23.0743 42.7375 23.6038 42.9999 23.9938C43.1321 24.1903 43.2393 24.355 43.3145 24.4722C43.3521 24.5308 43.3819 24.5779 43.4029 24.6113L43.4277 24.651C43.447 24.6819 43.4388 24.6689 43.4388 24.6689C44.0438 25.6475 43.7408 26.9314 42.7621 27.5364C41.7836 28.1412 40.5003 27.8385 39.8951 26.8604L39.8919 26.8552L39.8759 26.8298C39.8611 26.8063 39.838 26.7697 39.8074 26.722C39.7461 26.6266 39.6556 26.4874 39.5426 26.3194C39.4957 26.2497 39.4453 26.1756 39.392 26.0981C39.8788 28.5257 40.8393 31.854 41.3422 33.5379C41.5152 34.1173 41.1651 34.7267 40.5733 34.8501C36.8883 35.6181 34.3092 35.5981 30.3085 34.8363C29.6989 34.7201 29.3331 34.0946 29.5171 33.502C30.0422 31.8111 31.0208 28.5171 31.4843 26.0362C31.4149 26.1363 31.3501 26.2313 31.2908 26.3194C31.1778 26.4874 31.0873 26.6266 31.026 26.722C30.9954 26.7697 30.9723 26.8063 30.9575 26.8298L30.9415 26.8552L30.9388 26.8596Z" fill="#025F96"/>
<path fill-rule="evenodd" clip-rule="evenodd" d="M30.8333 36.616V38.0206C30.8333 38.8042 31.4137 39.4666 32.1904 39.5695C32.9672 39.6725 33.7001 39.1843 33.9044 38.4278L34.3162 36.9023C33.189 36.8642 32.0442 36.7692 30.8333 36.616ZM36.7242 36.8971L37.1374 38.4277C37.3416 39.1842 38.0745 39.6724 38.8513 39.5694C39.628 39.4664 40.2083 38.804 40.2083 38.0204V36.6016C38.9971 36.7555 37.8519 36.8544 36.7242 36.8971Z" fill="#025F96"/>
</svg>
