<svg width="50" height="50" viewBox="0 0 50 50" fill="none" xmlns="http://www.w3.org/2000/svg">
<path fill-rule="evenodd" clip-rule="evenodd" d="M27.2759 38.1763C26.6216 37.7488 25.8399 37.5003 25 37.5003C22.6988 37.5003 20.8333 39.3658 20.8333 41.667C20.8333 43.9681 22.6988 45.8337 25 45.8337C27.2907 45.8337 29.1496 43.9851 29.1665 41.6985L29.3994 37.513H31.0172L31.2501 41.6985C31.267 43.9851 33.1259 45.8337 35.4166 45.8337C37.7178 45.8337 39.5833 43.9681 39.5833 41.667C39.5833 39.3658 37.7178 37.5003 35.4166 37.5003C34.5767 37.5003 33.795 37.7488 33.1407 38.1763L31.2484 4.16699L30.2083 4.22486L29.1682 4.16699L27.2759 38.1763ZM30.9013 35.4297L30.2083 22.9751L29.5153 35.4297H30.9013ZM31.25 18.788C31.25 19.3625 30.7836 19.8282 30.2083 19.8282C29.633 19.8282 29.1666 19.3625 29.1666 18.788C29.1666 18.2136 29.633 17.7478 30.2083 17.7478C30.7836 17.7478 31.25 18.2136 31.25 18.788ZM22.9166 41.667C22.9166 40.5164 23.8494 39.5837 25 39.5837C26.1506 39.5837 27.0833 40.5164 27.0833 41.667C27.0833 42.8176 26.1506 43.7503 25 43.7503C23.8494 43.7503 22.9166 42.8176 22.9166 41.667ZM35.4166 39.5837C34.266 39.5837 33.3333 40.5164 33.3333 41.667C33.3333 42.8176 34.266 43.7503 35.4166 43.7503C36.5673 43.7503 37.5 42.8176 37.5 41.667C37.5 40.5164 36.5673 39.5837 35.4166 39.5837Z" fill="#025F96"/>
<path d="M15.625 15.6253V4.16699C15.625 4.16699 12.0021 6.52186 11.5128 15.6232C11.4511 16.7722 12.3911 17.7087 13.5417 17.7087C14.6923 17.7087 15.625 16.7759 15.625 15.6253Z" fill="#025F96"/>
<path d="M12.5 21.3545C12.5 20.4916 13.1996 19.792 14.0625 19.792C14.9254 19.792 15.625 20.4916 15.625 21.3545V21.4439L12.5 24.5689V21.3545Z" fill="#025F96"/>
<path d="M12.5 27.5146V29.2559L15.625 26.1309V24.3896L12.5 27.5146Z" fill="#025F96"/>
<path d="M12.5 33.9434V32.2021L15.625 29.0771V30.8184L12.5 33.9434Z" fill="#025F96"/>
<path d="M12.5 36.8896V44.2707C12.5 45.1336 13.1996 45.8332 14.0625 45.8332C14.9254 45.8332 15.625 45.1336 15.625 44.2707V33.7646L12.5 36.8896Z" fill="#025F96"/>
</svg>
