<svg width="22" height="22" viewBox="0 0 22 22" fill="none" xmlns="http://www.w3.org/2000/svg">
<path d="M19.1968 11.9359C19.3844 10.2931 19.074 8.63183 18.3059 7.16758C17.5378 5.70334 16.3475 4.50368 14.8892 3.72422C13.431 2.94475 11.7722 2.62144 10.128 2.79623C8.48377 2.97102 6.93001 3.63584 5.66825 4.70446C4.40648 5.77307 3.49494 7.19618 3.05184 8.78918C2.60874 10.3822 2.65454 12.0716 3.1833 13.6382C3.71205 15.2049 4.69937 16.5765 6.01718 17.5752C7.33499 18.5739 8.92248 19.1535 10.5738 19.239" stroke="#009113" stroke-width="2" stroke-linecap="round" stroke-linejoin="round"/>
<path d="M11 6.41699V11.0003L13.75 13.7503M13.75 17.417L15.5833 19.2503L19.25 15.5837" stroke="#009113" stroke-width="2" stroke-linecap="round" stroke-linejoin="round"/>
</svg>
