<svg width="50" height="50" viewBox="0 0 50 50" fill="none" xmlns="http://www.w3.org/2000/svg">
<path d="M39.5833 31.5239C39.5833 39.427 33.0542 45.8337 25 45.8337C16.9458 45.8337 10.4167 39.427 10.4167 31.5239C10.4167 19.0028 25 4.16699 25 4.16699C25 4.16699 39.5833 19.0028 39.5833 31.5239Z" fill="#025F96"/>
<path fill-rule="evenodd" clip-rule="evenodd" d="M25 43.7503C31.9409 43.7503 37.5 38.2394 37.5 31.5239C37.5 25.9439 34.1899 19.5598 30.5779 14.3347C28.8075 11.7736 27.0331 9.58716 25.7005 8.04075C25.45 7.75012 25.2155 7.4825 25 7.2397C24.7845 7.4825 24.55 7.75012 24.2995 8.04075C22.9669 9.58716 21.1925 11.7736 19.4221 14.3347C15.8101 19.5598 12.5 25.9439 12.5 31.5239C12.5 38.2394 18.0591 43.7503 25 43.7503ZM23.583 5.69826C19.9192 9.8012 10.4167 21.4167 10.4167 31.5239C10.4167 39.427 16.9458 45.8337 25 45.8337C33.0542 45.8337 39.5833 39.427 39.5833 31.5239C39.5833 21.4167 30.0808 9.8012 26.417 5.69826C25.542 4.71838 25 4.16699 25 4.16699C25 4.16699 24.458 4.71838 23.583 5.69826Z" fill="#025F96"/>
</svg>
