<svg width="50" height="50" viewBox="0 0 50 50" fill="none" xmlns="http://www.w3.org/2000/svg">
<path fill-rule="evenodd" clip-rule="evenodd" d="M16.881 6.5019C16.2326 6.37684 15.625 6.86971 15.625 7.53014V8.21518C15.625 8.79048 15.1586 9.25685 14.5833 9.25685H13.5417C12.9664 9.25685 12.5 9.72322 12.5 10.2985V12.2243C12.5 12.7996 12.9664 13.2659 13.5417 13.2659H14.5833C15.1586 13.2659 15.625 13.7323 15.625 14.3076V15.4638C15.625 15.9398 15.9485 16.3562 16.4108 16.4695C23.1462 18.12 27.1628 18.1208 33.6001 16.4755C34.0571 16.3586 34.375 15.9447 34.375 15.473V14.3076C34.375 13.7323 34.8414 13.2659 35.4167 13.2659H36.4583C37.0336 13.2659 37.5 12.7996 37.5 12.2243V10.2985C37.5 9.72322 37.0336 9.25685 36.4583 9.25685H35.4167C34.8414 9.25685 34.375 8.79048 34.375 8.21518V7.53343C34.375 6.87193 33.7656 6.37883 33.1162 6.50522C26.9669 7.70224 23.0297 7.6877 16.881 6.5019ZM19.7917 10.4168C19.7917 9.84144 19.3253 9.37507 18.75 9.37507C18.1747 9.37507 17.7083 9.84144 17.7083 10.4168V13.5418C17.7083 14.1171 18.1747 14.5834 18.75 14.5834C19.3253 14.5834 19.7917 14.1171 19.7917 13.5418V10.4168Z" fill="#025F96"/>
<path fill-rule="evenodd" clip-rule="evenodd" d="M16.881 19.0019C16.2326 18.8769 15.625 19.3697 15.625 20.0302V20.7152C15.625 21.2905 15.1586 21.7569 14.5833 21.7569H13.5417C12.9664 21.7569 12.5 22.2232 12.5 22.7986V24.7243C12.5 25.2996 12.9664 25.7659 13.5417 25.7659H14.5833C15.1586 25.7659 15.625 26.2323 15.625 26.8076V27.9639C15.625 28.4398 15.9485 28.8563 16.4108 28.9695C23.1462 30.62 27.1628 30.6208 33.6001 28.9755C34.0571 28.8587 34.375 28.4447 34.375 27.973V26.8076C34.375 26.2323 34.8414 25.7659 35.4167 25.7659H36.4583C37.0336 25.7659 37.5 25.2996 37.5 24.7243V22.7986C37.5 22.2232 37.0336 21.7569 36.4583 21.7569H35.4167C34.8414 21.7569 34.375 21.2905 34.375 20.7152V20.0334C34.375 19.372 33.7656 18.8789 33.1162 19.0052C26.9669 20.2023 23.0297 20.1877 16.881 19.0019ZM19.7917 22.9168C19.7917 22.3415 19.3253 21.8751 18.75 21.8751C18.1747 21.8751 17.7083 22.3415 17.7083 22.9168V26.0418C17.7083 26.6171 18.1747 27.0834 18.75 27.0834C19.3253 27.0834 19.7917 26.6171 19.7917 26.0418V22.9168Z" fill="#025F96"/>
<path fill-rule="evenodd" clip-rule="evenodd" d="M16.881 31.5019C16.2326 31.3769 15.625 31.8697 15.625 32.5302V33.2152C15.625 33.7905 15.1586 34.2569 14.5833 34.2569H13.5417C12.9664 34.2569 12.5 34.7232 12.5 35.2986V37.2243C12.5 37.7996 12.9664 38.2659 13.5417 38.2659H14.5833C15.1586 38.2659 15.625 38.7323 15.625 39.3076V40.4639C15.625 40.9398 15.9485 41.3563 16.4108 41.4695C23.1462 43.12 27.1628 43.1208 33.6001 41.4755C34.0571 41.3587 34.375 40.9447 34.375 40.473V39.3076C34.375 38.7323 34.8414 38.2659 35.4167 38.2659H36.4583C37.0336 38.2659 37.5 37.7996 37.5 37.2243V35.2986C37.5 34.7232 37.0336 34.2569 36.4583 34.2569H35.4167C34.8414 34.2569 34.375 33.7905 34.375 33.2152V32.5334C34.375 31.872 33.7656 31.3789 33.1162 31.5052C26.9669 32.7023 23.0297 32.6877 16.881 31.5019ZM19.7917 35.4168C19.7917 34.8415 19.3253 34.3751 18.75 34.3751C18.1747 34.3751 17.7083 34.8415 17.7083 35.4168V38.5418C17.7083 39.1171 18.1747 39.5834 18.75 39.5834C19.3253 39.5834 19.7917 39.1171 19.7917 38.5418V35.4168Z" fill="#025F96"/>
</svg>
