<svg width="50" height="50" viewBox="0 0 50 50" fill="none" xmlns="http://www.w3.org/2000/svg">
<path fill-rule="evenodd" clip-rule="evenodd" d="M21.8324 9.6678C17.3144 7.12484 13.3117 8.32058 9.98474 12.3598C6.77374 16.2583 8.96298 23.2855 10.5368 28.3371C10.912 29.5416 11.2523 30.6337 11.4759 31.5444C12.6379 36.2744 13.7496 39.2218 16.2845 41.3549C17.5399 42.4111 18.9633 40.5959 20.4651 38.6807C21.7672 37.0203 23.1281 35.2848 24.4894 35.2806C25.8285 35.2766 27.1679 37.0094 28.4519 38.6704C29.934 40.5878 31.3423 42.4096 32.591 41.3549C34.5272 39.7196 35.4066 38.5198 36.4704 35.1507C37.6306 31.4767 39.504 27.083 40.9933 22.0184C42.0413 18.455 42.1668 14.8273 39.1467 11.3254C34.8348 6.32588 28.8583 8.90825 26.0763 10.5618L29.8446 13.7922C30.2814 14.1666 30.332 14.8242 29.9575 15.2609C29.5831 15.6977 28.9255 15.7483 28.4888 15.3738L21.8324 9.6678Z" fill="#025F96"/>
</svg>
