<svg width="50" height="50" viewBox="0 0 50 50" fill="none" xmlns="http://www.w3.org/2000/svg">
<path d="M13.0708 32.0342C1.75393 27.2611 6.22018 11.1498 14.076 8.48781C17.335 7.38351 20.931 11.0471 20.908 13.3218C20.898 14.3054 20.3905 15.2643 19.8618 16.2634C19.1676 17.5752 18.4368 18.9561 18.7471 20.5526C19.2939 23.3652 19.9063 28.1109 18.3283 30.3636C16.7503 32.6163 15.1634 32.9168 13.0708 32.0342Z" fill="#025F96"/>
<path d="M35.7784 8.48781C43.6344 11.1498 48.1006 27.2611 36.7837 32.0342C34.691 32.9168 33.1042 32.6163 31.5262 30.3636C29.9483 28.1109 30.5607 23.3652 31.1074 20.5526C31.4177 18.9561 30.687 17.5752 29.9927 16.2634C29.4639 15.2643 28.9564 14.3054 28.9466 13.3218C28.9235 11.0471 32.5196 7.38351 35.7784 8.48781Z" fill="#025F96"/>
<path d="M29.8105 23.7285C29.882 24.7678 29.8826 24.7677 29.8832 24.7677L29.8845 24.7676L29.8868 24.7674L29.8908 24.7671L29.8966 24.7666L29.8996 24.7663C29.8978 24.7665 29.889 24.7676 29.8741 24.77C29.8442 24.7748 29.7918 24.7848 29.7247 24.8037C29.5881 24.8425 29.4081 24.9133 29.2319 25.0389C28.9301 25.2538 28.4863 25.7311 28.4863 26.9355V42.0044C28.4863 42.0045 28.4863 42.0045 27.4447 42.0045C26.403 42.0045 26.403 42.004 26.403 42.0039V26.9355C26.403 25.0955 27.1422 23.9693 28.0233 23.3418C28.4385 23.0462 28.85 22.8862 29.157 22.7992C29.3118 22.7554 29.4443 22.7289 29.5436 22.713C29.5934 22.705 29.6355 22.6996 29.6683 22.6959C29.6848 22.694 29.6991 22.6926 29.7108 22.6915L29.7268 22.6902L29.7334 22.6898L29.7363 22.6896L29.7377 22.6895C29.7384 22.6894 29.7391 22.6894 29.8105 23.7285Z" fill="#025F96"/>
<path d="M20.0441 23.7285C19.9726 24.7678 19.9719 24.7677 19.9712 24.7677L19.9701 24.7676L19.9677 24.7674L19.9637 24.7671L19.9579 24.7666C19.9559 24.7664 19.9549 24.7663 19.9547 24.7663C19.9565 24.7665 19.9656 24.7676 19.9804 24.77C20.0104 24.7748 20.0628 24.7848 20.1298 24.8037C20.2663 24.8425 20.4463 24.9133 20.6227 25.0389C20.9245 25.2538 21.3682 25.7311 21.3682 26.9355V42.0044C21.3682 42.0045 21.3682 42.0045 22.4099 42.0045C23.4516 42.0045 23.4516 42.004 23.4516 42.0039V26.9355C23.4516 25.0955 22.7123 23.9693 21.8311 23.3418C21.416 23.0462 21.0046 22.8862 20.6975 22.7992C20.5428 22.7554 20.4103 22.7289 20.3109 22.713C20.261 22.705 20.2191 22.6996 20.1861 22.6959C20.1697 22.694 20.1555 22.6926 20.1436 22.6915L20.1277 22.6902L20.1211 22.6898L20.1182 22.6896L20.1168 22.6895C20.1161 22.6894 20.1154 22.6894 20.0441 23.7285Z" fill="#025F96"/>
</svg>
