<svg width="50" height="50" viewBox="0 0 50 50" fill="none" xmlns="http://www.w3.org/2000/svg">
<path fill-rule="evenodd" clip-rule="evenodd" d="M24.183 10.4801C23.5022 11.4598 23.0333 12.4607 22.7119 13.3771C22.3396 14.4386 22.1619 15.3929 22.077 16.0853C22.0344 16.4323 22.0148 16.7159 22.0059 16.9171C22.0014 17.0177 21.9997 17.098 21.9992 17.1557C21.9988 17.1845 21.9988 17.2076 21.9988 17.2248L21.9991 17.2461L21.9992 17.2534L21.9993 17.2561V17.2572C21.9993 17.2572 21.9993 17.2583 23.0407 17.2376C24.0822 17.2169 24.0822 17.2177 24.0822 17.2177V17.2143V17.2114L24.0824 17.1776C24.0827 17.1421 24.0838 17.0851 24.0873 17.0088C24.0939 16.856 24.1095 16.6268 24.1448 16.3391C24.2156 15.7619 24.365 14.9585 24.6778 14.0668C25.0628 12.9692 25.6908 11.7474 26.7228 10.6416C29.1445 10.916 30.0547 11.4634 30.8081 11.9164C31.4738 12.3167 32.0171 12.6434 33.3723 12.6434C34.7713 12.6434 36.7301 12.2254 38.6888 11.8075C41.627 11.1807 44.5651 10.5539 45.6144 11.3374C47.3632 12.6434 42.1167 22.2204 36.87 22.2204C34.1695 22.2204 32.5501 24.1564 30.9783 26.0353C29.4964 27.8069 28.057 29.5277 25.7937 29.5277C23.6145 29.5277 22.1989 30.2135 20.8333 30.9441V24.0085C20.8333 23.5967 21.0364 23.2128 21.3891 22.9043C21.7613 22.5786 22.1773 22.446 22.3958 22.446V20.3626C21.5727 20.3626 20.6866 20.7508 20.0172 21.3365C19.3466 21.9233 18.781 22.8088 18.7512 23.9166H13.445C10.9561 23.9166 7.96959 25.0119 10.9561 27.2018C13.1226 28.7903 16.8604 27.5262 18.75 26.712V31.9867C17.7897 32.3841 16.7033 32.6683 15.3005 32.6683C13.3881 32.6683 12.756 34.1978 12.0843 35.8235C11.3226 37.6668 10.5099 39.6335 7.72199 39.6335C2.47534 39.6335 3.76993 23.4876 6.89495 17.2376C10.02 10.9876 14.2963 10.4668 23.0408 10.4668C23.4436 10.4668 23.8238 10.4714 24.183 10.4801Z" fill="#025F96"/>
<path fill-rule="evenodd" clip-rule="evenodd" d="M18.75 41.717V31.9869L20.8333 30.9443V41.717H18.75Z" fill="#025F96"/>
</svg>
