<svg width="50" height="50" viewBox="0 0 50 50" fill="none" xmlns="http://www.w3.org/2000/svg">
<path d="M20.8336 6.25H25.0003V9.00399C26.3256 8.92328 27.6102 9.00045 28.7645 9.24411C23.8682 11.1712 21.6155 16.1238 21.2467 16.9348L21.224 16.9845C20.0275 16.8028 18.7312 16.6518 17.5047 16.663C16.2407 16.7707 15.0144 16.9575 12.9947 18.0951C12.7099 18.2964 12.3259 18.6265 11.8042 19.1298C11.7662 19.1025 11.7256 19.0772 11.6725 19.044C11.63 19.0174 11.5793 18.9858 11.5155 18.9442C11.2271 18.7557 10.8059 18.5007 10.2924 18.246C9.2345 17.7211 7.9368 17.2735 6.66504 17.2735V13.2336C8.86405 13.2336 10.8411 13.9802 12.1903 14.6496C12.6583 14.8818 13.0691 15.1139 13.409 15.3201C13.7097 14.6782 14.1065 14.0813 14.5808 13.5308L12.2927 9.94033L15.9604 7.55852L18.0714 10.8711C18.9407 10.4228 19.8732 10.0508 20.8336 9.75842V6.25Z" fill="#025F96"/>
<path d="M32.0382 15.3028C30.5198 16.0067 29.2054 17.1637 28.0204 19.3907C28.0204 19.3907 25.3913 18.1884 23.2584 17.5636C24.8954 14.2448 26.8003 12.3775 29.6094 11.0754C32.3267 9.81587 35.5683 9.49336 39.4193 9.62644L39.237 14.5831C35.6837 14.4603 33.6483 14.5565 32.0382 15.3028Z" fill="#025F96"/>
<path d="M13.8344 20.0202C6.2691 26.7681 17.0766 43.6379 25.7227 43.6379C34.3688 43.6379 46.2742 26.7831 37.611 19.0562C37.4112 18.8779 37.2361 18.7175 37.0736 18.5685C36.3576 17.912 35.881 17.4751 34.5598 16.6895C31.9011 16.6895 30.299 19.3489 29.5696 20.9691C29.5325 21.0514 29.4868 21.1282 29.4339 21.1986L27.7524 25.8763L27.1465 28.0515C27.0825 28.2812 27.0992 28.5258 27.1939 28.7447L27.9016 30.3803L31.5661 29.955L31.8064 32.0243L28.3598 32.4245L28.5838 35.7076L26.5053 35.8493L26.2258 31.7537L25.2819 29.572C24.9978 28.9155 24.9476 28.1814 25.1395 27.4925L25.1576 27.4275L23.0389 28.3856L21.6535 31.8875L19.7163 31.1211L20.8134 28.3478L17.4692 27.5599L17.9469 25.5321L22.1193 26.5151L25.9281 24.7925L27.209 21.2295C23.909 19.679 17.1322 17.0786 13.8344 20.0202Z" fill="#025F96"/>
</svg>
