<svg width="50" height="50" viewBox="0 0 50 50" fill="none" xmlns="http://www.w3.org/2000/svg">
<path d="M20.8332 12.5003C23.1344 12.5003 24.9999 10.6348 24.9999 8.33366C24.9999 6.03247 23.1344 4.16699 20.8332 4.16699C18.532 4.16699 16.6666 6.03247 16.6666 8.33366C16.6666 10.6348 18.532 12.5003 20.8332 12.5003Z" fill="#025F96"/>
<path fill-rule="evenodd" clip-rule="evenodd" d="M16.4068 28.1889C16.8274 28.5255 17.3384 28.6725 17.8369 28.6415C17.8481 30.0156 17.7976 31.4378 17.7424 32.9936C17.6469 35.6847 17.5372 38.7753 17.7082 42.708V43.7497C17.7082 44.9003 18.6409 45.833 19.7916 45.833C20.9422 45.833 21.8749 44.9003 21.8749 43.7497V42.708L23.3979 34.6954C23.6054 34.632 23.8649 34.5462 24.1583 34.4352C24.8631 34.1685 25.8285 33.732 26.746 33.0648C27.6589 32.4009 28.6371 31.4255 29.1714 30.0517C29.7272 28.6224 29.71 26.9987 29.0175 25.2676C27.8221 22.2789 25.6397 19.6984 23.8689 17.9276C22.9674 17.0261 22.1361 16.2987 21.5276 15.7946C21.2227 15.542 20.9721 15.3438 20.7942 15.2065C20.7052 15.1379 20.6344 15.0843 20.584 15.0465L20.5238 15.0019L20.5058 14.9886L20.4999 14.9843L20.496 14.9814L20.3473 15.1859L20.3478 15.185L20.3487 15.1836C20.4958 14.9813 20.496 14.9814 20.496 14.9814C20.14 14.7225 19.7105 14.583 19.2702 14.583H17.1874C16.3917 14.583 15.7575 14.9285 15.3818 15.179C14.9706 15.4532 14.6012 15.7956 14.2887 16.123C13.6603 16.7814 13.0487 17.6057 12.5363 18.3573C12.0145 19.1228 11.5502 19.8799 11.219 20.4405C11.0525 20.7223 10.9175 20.9579 10.8233 21.1246C10.7761 21.208 10.7392 21.2744 10.7134 21.3208L10.6833 21.3753L10.6749 21.3907L10.6709 21.3979C10.1871 22.2849 10.4095 23.3911 11.1984 24.0223L16.4068 28.1889ZM17.4142 23.6589L15.2085 21.8945C15.4398 21.5203 15.702 21.1109 15.979 20.7046C16.1467 20.4586 16.3142 20.2222 16.4784 20.0009C16.9056 21.2938 17.2062 22.4963 17.4142 23.6589Z" fill="#025F96"/>
</svg>
