<svg width="50" height="50" viewBox="0 0 50 50" fill="none" xmlns="http://www.w3.org/2000/svg">
<path d="M23.7988 36.1086C22.6042 35.8263 21.8522 35.0492 21.4095 34.0363C20.9993 33.0931 20.8691 31.9441 20.8919 30.8183C20.9147 29.7223 21.084 28.643 21.2728 27.7962C21.5918 26.3947 22.0475 25.053 22.6237 23.7512C23.1999 22.456 23.8932 21.204 24.6777 19.9919C24.6875 19.9786 24.6973 19.962 24.707 19.9487C27.0508 16.8336 29.847 13.9012 32.998 11.2245C36.1491 8.54777 39.6582 6.13674 43.418 4.06777C43.5417 4.00135 43.6784 3.98474 43.8021 4.01463C44.0397 3.95818 44.2904 4.06777 44.4108 4.29692C44.554 4.56592 44.4596 4.90134 44.2025 5.0541C42.1094 6.40574 40.0488 7.98653 38.1283 9.74997C36.3118 11.4171 34.6289 13.2403 33.1803 15.1798C31.2793 17.7203 30.2214 19.5668 29.6419 21.3169C29.0625 23.0605 28.9421 24.7409 28.9095 26.936C28.903 27.3379 28.9193 27.8194 28.9355 28.3342C28.9551 28.9984 28.9779 29.7257 28.9616 30.4629C28.8835 34.4215 27.3568 36.9189 23.7988 36.1086ZM6.10677 40.9572H43.8932V23.449C43.8932 22.8446 43.6979 22.6653 43.4538 22.6653C43.0241 22.6653 42.4284 22.9343 41.9987 23.1335C41.9206 23.17 41.8457 23.2033 41.8066 23.2199C39.4401 24.2693 38.9941 24.0833 37.5879 23.4955C37.2201 23.3427 36.7741 23.1534 36.1654 22.9542C34.8763 22.5291 33.7565 22.2468 33.0404 22.5391C32.3796 22.8081 31.9857 23.6715 31.9954 25.5711C31.9954 25.8468 32.0052 26.1357 32.015 26.4213C32.0247 26.6936 32.0313 26.9626 32.0345 27.2449C32.0378 27.9323 32.0671 28.5799 32.0931 29.181C32.1289 30.0146 32.1582 30.7651 32.1257 31.5057C31.6764 40.4624 20.6022 41.7343 18.265 33.8769C17.8092 32.3492 17.7734 30.5426 18.0762 28.4969C18.3333 26.7833 18.8379 24.8936 19.5443 22.8512C17.5456 23.4058 15.5664 23.7346 13.6035 23.7678C11.3216 23.8044 9.07878 23.439 6.88151 22.5689C6.67969 22.5955 6.4974 22.6852 6.36068 22.8247C6.20443 22.9841 6.10677 23.2033 6.10677 23.449V40.9572ZM45 42H5C5 36.434 5 29.015 5 23.449C5 22.8944 5.22135 22.3896 5.57943 22.0276C5.93424 21.6656 6.42904 21.4365 6.97266 21.4365C7.05078 21.4365 7.12565 21.4531 7.19076 21.483C9.28385 22.3232 11.4193 22.6785 13.5905 22.642C15.778 22.6055 18.0111 22.1771 20.2767 21.4597C20.5697 21.3701 20.8789 21.5361 20.9668 21.8317C21.0059 21.9546 20.9993 22.0808 20.957 22.1937C20.0781 24.5649 19.4629 26.7335 19.1699 28.6596C18.8867 30.5493 18.916 32.1898 19.3164 33.5415C21.3021 40.2067 30.6348 39.124 31.0189 31.4393C31.0547 30.7452 31.0221 30.0212 30.9863 29.2175C30.9603 28.6165 30.931 27.9755 30.9277 27.2382C30.9277 26.9925 30.918 26.7202 30.9082 26.4445C30.8984 26.1622 30.8887 25.8766 30.8887 25.5612C30.8757 23.1036 31.5299 21.928 32.6237 21.4797C33.6589 21.0546 34.9967 21.3734 36.4974 21.8682C37.1257 22.0774 37.6009 22.2734 37.998 22.4394C39.0755 22.8911 39.4206 23.0339 41.3607 22.1738C41.4388 22.1372 41.4909 22.114 41.5462 22.094C42.0736 21.8549 42.7962 21.5262 43.4538 21.5262C44.3197 21.5328 45 21.9778 45 23.4457C45 29.015 45 36.4374 45 42ZM8.05339 24.3988C8.46029 24.3988 8.79232 24.7375 8.79232 25.1527C8.79232 25.5678 8.46029 25.9065 8.05339 25.9065C7.64648 25.9065 7.31445 25.5678 7.31445 25.1527C7.31445 24.7342 7.64648 24.3988 8.05339 24.3988ZM41.9076 24.4519C42.3145 24.4519 42.6465 24.7907 42.6465 25.2058C42.6465 25.6209 42.3145 25.9597 41.9076 25.9597C41.5007 25.9597 41.1686 25.6209 41.1686 25.2058C41.1686 24.7907 41.4974 24.4519 41.9076 24.4519ZM37.8678 24.7542C38.2747 24.7542 38.6068 25.0929 38.6068 25.508C38.6068 25.9231 38.2747 26.2619 37.8678 26.2619C37.4609 26.2619 37.1289 25.9231 37.1289 25.508C37.1289 25.0929 37.4609 24.7542 37.8678 24.7542ZM39.3945 26.8165C39.8014 26.8165 40.1335 27.1552 40.1335 27.5703C40.1335 27.9855 39.8014 28.3242 39.3945 28.3242C38.9876 28.3242 38.6556 27.9855 38.6556 27.5703C38.6556 27.1519 38.9876 26.8165 39.3945 26.8165ZM35.752 26.5641C36.1589 26.5641 36.4909 26.9028 36.4909 27.3179C36.4909 27.7331 36.1589 28.0718 35.752 28.0718C35.3451 28.0718 35.013 27.7331 35.013 27.3179C35.0098 26.9028 35.3418 26.5641 35.752 26.5641ZM33.8314 24.5549C34.2383 24.5549 34.5703 24.8936 34.5703 25.3088C34.5703 25.7239 34.2383 26.0626 33.8314 26.0626C33.4245 26.0626 33.0924 25.7239 33.0924 25.3088C33.0892 24.8903 33.4212 24.5549 33.8314 24.5549ZM16.1296 24.2992C16.5365 24.2992 16.8685 24.6379 16.8685 25.053C16.8685 25.4682 16.5365 25.8069 16.1296 25.8069C15.7227 25.8069 15.3906 25.4682 15.3906 25.053C15.3906 24.6346 15.7194 24.2992 16.1296 24.2992ZM12.0931 24.5981C12.5 24.5981 12.832 24.9368 12.832 25.3519C12.832 25.7671 12.5 26.1058 12.0931 26.1058C11.6862 26.1058 11.3542 25.7671 11.3542 25.3519C11.3542 24.9368 11.6862 24.5981 12.0931 24.5981ZM13.6198 26.6571C14.0267 26.6571 14.3587 26.9958 14.3587 27.4109C14.3587 27.8261 14.0267 28.1648 13.6198 28.1648C13.2129 28.1648 12.8809 27.8261 12.8809 27.4109C12.8809 26.9925 13.2129 26.6571 13.6198 26.6571ZM9.97396 26.408C10.3809 26.408 10.7129 26.7467 10.7129 27.1619C10.7129 27.577 10.3809 27.9157 9.97396 27.9157C9.56706 27.9157 9.23503 27.577 9.23503 27.1619C9.23503 26.7467 9.56706 26.408 9.97396 26.408Z" fill="#025F96"/>
</svg>
