<svg width="50" height="50" viewBox="0 0 50 50" fill="none" xmlns="http://www.w3.org/2000/svg">
<path d="M36.4001 8.55376C36.3751 8.55376 36.3322 8.55504 36.2746 8.5576C36.1665 8.56208 35.9982 8.5688 35.7822 8.5688C33.6728 8.56912 30.0293 7.92049 29.3272 3.57335C29.3125 3.48055 29.2562 3.39927 29.1755 3.35255C29.0943 3.30583 28.9957 3.29751 28.9083 3.33047L25.4406 4.63381C25.3055 4.68437 25.2223 4.82069 25.2396 4.96373C25.7545 9.27791 29.3589 10.5988 30.8398 10.9617C30.2872 11.5704 29.4696 12.8491 29.4274 15.1143C29.2331 25.6169 22.4409 26.4332 20.3641 26.4335C18.3091 26.4335 16.2256 25.8175 14.6484 24.7439C14.4394 24.6018 14.2151 24.4403 13.9761 24.2684C12.5339 23.2319 10.5595 21.8118 8.22415 21.8118C6.80753 21.8118 5.42515 22.3484 4.11637 23.406C3.98421 23.5129 3.96117 23.7059 4.06485 23.8403L5.27731 25.4153C5.32851 25.4822 5.40563 25.5257 5.48947 25.5353C5.57331 25.5458 5.65747 25.5202 5.72339 25.4668C6.45234 24.8706 7.19121 24.5682 7.91984 24.5682C9.41837 24.5682 10.5195 25.8473 10.8251 26.2441C10.6673 26.798 10.41 28.1087 11.0299 29.3631C12.1255 31.5803 18.192 38.0138 27.0306 38.0138C31.4622 38.0138 35.7022 36.1294 38.9687 32.7083C42.1658 29.3595 44 24.8646 44 20.377C44 12.8631 41.2304 8.55376 36.4001 8.55376Z" fill="#025F96"/>
</svg>
