<svg width="50" height="50" viewBox="0 0 50 50" fill="none" xmlns="http://www.w3.org/2000/svg">
<path d="M17.2312 12.4902C23.3251 12.4952 22.7642 20.7837 22.7616 24.0993C22.7581 28.3309 23.797 36.8717 20.5325 40.1226C17.2059 43.4354 10.5569 45.0878 7.23528 42.3221C3.91367 39.5564 9.47565 12.4839 17.2312 12.4902Z" fill="#025F96"/>
<path d="M32.7944 12.5039C26.7006 12.4989 27.2479 20.7883 27.2452 24.1038C27.2417 28.3355 26.1888 36.8745 29.4479 40.1309C32.7691 43.4491 39.4154 45.1123 42.7416 42.3521C46.0676 39.5918 40.55 12.5103 32.7944 12.5039Z" fill="#025F96"/>
<path fill-rule="evenodd" clip-rule="evenodd" d="M23.9766 6.24903C23.9766 6.24903 23.9766 6.2489 25.0182 6.24976C26.0599 6.25061 26.0599 6.25074 26.0599 6.25074L26.0475 21.3475C26.0457 23.5364 25.0703 24.7909 23.966 25.4341C23.4479 25.7358 22.9391 25.8821 22.566 25.9543C22.3775 25.9908 22.2176 26.0096 22.0999 26.0193C22.0408 26.0242 21.992 26.0268 21.9547 26.0282C21.9361 26.029 21.9204 26.0294 21.9077 26.0296L21.891 26.0298H21.8845H21.8804C21.8804 26.0298 21.8792 26.0298 21.88 24.9881C21.8808 23.9465 21.8797 23.9465 21.8797 23.9465H21.8786L21.8767 23.9466H21.8735H21.8702C21.8702 23.9466 21.8725 23.9466 21.8754 23.9464C21.884 23.946 21.9022 23.9452 21.9285 23.943C21.9817 23.9386 22.0657 23.9292 22.17 23.909C22.3825 23.8678 22.6546 23.787 22.9176 23.6338C23.3754 23.3672 23.9629 22.801 23.9642 21.3458L23.9766 6.24903Z" fill="#025F96"/>
<path fill-rule="evenodd" clip-rule="evenodd" d="M26.0599 6.25074C26.0599 6.25074 26.0599 6.25061 25.0182 6.24976C23.9766 6.2489 23.9766 6.24903 23.9766 6.24903L23.9642 21.3458C23.9624 23.5347 24.9356 24.7908 26.039 25.4357C26.5566 25.7383 27.0651 25.8854 27.438 25.9582C27.6266 25.9951 27.7865 26.0142 27.9041 26.0241C27.9631 26.029 28.0121 26.0317 28.0493 26.0332C28.0679 26.034 28.0837 26.0344 28.0963 26.0346L28.1129 26.0349H28.1195H28.1223H28.1236C28.1236 26.0349 28.1248 26.0349 28.1256 24.9932C28.1265 23.9516 28.1277 23.9516 28.1277 23.9516H28.1288H28.1307L28.1339 23.9517H28.1372C28.1372 23.9517 28.1362 23.9517 28.1319 23.9515C28.1233 23.9511 28.1052 23.9502 28.0789 23.948C28.0257 23.9435 27.9417 23.934 27.8375 23.9135C27.625 23.8721 27.353 23.7907 27.0903 23.6372C26.6329 23.3698 26.0463 22.8027 26.0475 21.3475L26.0599 6.25074Z" fill="#025F96"/>
</svg>
