<svg width="22" height="22" viewBox="0 0 22 22" fill="none" xmlns="http://www.w3.org/2000/svg">
<path d="M11 1.83301C5.94001 1.83301 1.83334 5.93967 1.83334 10.9997C1.83334 16.0597 5.94001 20.1663 11 20.1663C16.06 20.1663 20.1667 16.0597 20.1667 10.9997C20.1667 5.93967 16.06 1.83301 11 1.83301ZM11 18.333C6.94834 18.333 3.66668 15.0513 3.66668 10.9997C3.66668 6.94801 6.94834 3.66634 11 3.66634C15.0517 3.66634 18.3333 6.94801 18.3333 10.9997C18.3333 15.0513 15.0517 18.333 11 18.333Z" fill="#025F96"/>
<path d="M12.4117 8.22236C12.2008 7.79153 11.715 7.57153 11.2567 7.73653L8.25001 8.84569V10.9999H9.16667V9.48736L10.5783 8.96486L9.69834 13.4474L7.15001 12.9249L6.96667 13.8232L10.4133 14.529L10.89 12.109L11.9167 13.2182V16.4999H12.8333V12.8607L11.6233 11.5407L11.9992 9.38653C12.8242 10.5049 14.025 10.9999 14.6667 10.9999V10.0832C14.2908 10.0832 13.1725 9.7807 12.4117 8.22236Z" fill="#025F96"/>
<path d="M12.375 7.33333C12.8813 7.33333 13.2917 6.92293 13.2917 6.41667C13.2917 5.91041 12.8813 5.5 12.375 5.5C11.8687 5.5 11.4583 5.91041 11.4583 6.41667C11.4583 6.92293 11.8687 7.33333 12.375 7.33333Z" fill="#025F96"/>
</svg>
