<svg width="50" height="50" viewBox="0 0 50 50" fill="none" xmlns="http://www.w3.org/2000/svg">
<path fill-rule="evenodd" clip-rule="evenodd" d="M26.4975 8.46177C26.7337 8.98632 26.5001 9.60308 25.9755 9.83935C24.1675 10.6537 22.9107 12.4674 22.9036 14.5732V14.591V14.6089C22.9132 17.4773 25.2414 19.7994 28.1119 19.7994C30.7984 19.7994 33.011 17.7645 33.2904 15.1527C33.3516 14.5806 33.8649 14.1665 34.437 14.2277C35.009 14.2889 35.4231 14.8023 35.3619 15.3742C35.1971 16.9153 34.5526 18.3127 33.5806 19.4141C35.1444 19.7656 36.5182 20.6194 37.5224 21.7953C37.8959 22.2328 37.8442 22.8903 37.4067 23.2639C36.9692 23.6375 36.3117 23.5857 35.9381 23.1482C34.9812 22.0277 33.5616 21.3201 31.9754 21.3201C29.099 21.3201 26.7671 23.6518 26.7671 26.5284C26.7671 27.6057 27.0931 28.6039 27.6518 29.4334L27.6591 29.4429C27.7274 29.5324 27.7791 29.6294 27.8145 29.7303C27.8407 29.8031 27.8584 29.8778 27.8678 29.9531C28.2143 29.9973 28.5464 30.1643 28.793 30.4491C29.0306 30.7236 29.2456 31.0044 29.4406 31.2893C29.8183 31.8409 29.7693 32.5585 29.3665 33.0511C29.9892 33.0379 30.5759 33.4242 30.7889 34.0449C31.0079 34.6834 31.1755 35.3076 31.3203 35.8737C31.4629 36.4312 31.2662 36.9958 30.8598 37.3492C31.3519 37.4193 31.7966 37.7373 32.0062 38.2278C32.1994 38.6795 32.383 38.8987 32.554 39.0194C32.8286 39.2134 33.0167 39.4844 33.1095 39.7825C33.3421 39.476 33.6938 39.2606 34.106 39.2111C34.3288 39.1843 34.5776 39.1424 34.8552 39.0819C35.278 38.9899 35.6978 39.0896 36.0241 39.323C36.1341 39.1655 36.2889 39.0366 36.4795 38.9578C36.575 38.9182 36.6701 38.8785 36.7648 38.8389C37.3033 38.574 37.6978 38.1362 37.8822 37.5788C38.0896 36.9524 38.0715 36.0466 37.4737 34.8875C37.2101 34.3761 37.4108 33.7479 37.9222 33.4842C38.4334 33.2206 39.0618 33.4213 39.3254 33.9327C39.7497 34.7556 39.9929 35.5632 40.0638 36.3302C40.6984 35.5762 41.3684 34.557 41.916 33.2135C42.1331 32.6807 42.741 32.4249 43.2738 32.6419C43.8066 32.8591 44.0624 33.467 43.8453 33.9998C43.1934 35.5993 42.3837 36.8221 41.6033 37.736C42.1108 37.7962 42.6444 37.9213 43.2222 38.1217C43.7656 38.3104 44.0533 38.9038 43.8648 39.4474C43.6761 39.9909 43.0827 40.2786 42.5392 40.09C41.5034 39.7306 40.7663 39.7166 40.0487 39.8653C39.3802 40.0038 38.7226 40.2787 37.8049 40.6625L37.6102 40.7438C37.5105 40.7908 37.409 40.8341 37.3056 40.8739C37.2848 40.8819 37.2639 40.8892 37.2428 40.8959C37.0239 40.978 36.7935 40.9815 36.5837 40.9198C36.4403 41.4251 36.0301 41.8369 35.4809 41.9565C35.1246 42.0341 34.7834 42.0929 34.4567 42.1321C33.7409 42.218 33.0837 41.7748 32.877 41.1103C32.4 41.7394 31.5065 41.8814 30.8567 41.4225C30.0783 40.8727 29.6135 40.1153 29.301 39.3841C29.0435 38.7815 29.2193 38.1027 29.6889 37.6951C29.1167 37.6137 28.6222 37.1974 28.4701 36.6027C28.3302 36.0559 28.1859 35.5236 28.0061 34.9995C27.8349 34.5003 27.9476 33.9721 28.2584 33.5912C27.7791 33.601 27.3043 33.3765 27.0132 32.9514C26.8782 32.7543 26.7309 32.5619 26.5691 32.3751C26.2211 31.9734 26.1294 31.4369 26.2794 30.9651C26.1637 30.8925 26.0605 30.7957 25.9778 30.6763L25.9657 30.6588C25.0107 29.4389 23.5277 28.658 21.8619 28.658C20.1957 28.658 18.7123 29.4404 17.7589 30.6579C17.688 30.7608 17.6145 30.8619 17.5385 30.961C16.9797 31.791 16.6535 32.7906 16.6535 33.8663C16.6535 34.8591 16.9303 35.7841 17.4104 36.5719C17.7098 37.0632 17.5542 37.7041 17.0629 38.0035C16.5717 38.3029 15.9307 38.1473 15.6314 37.656C14.9579 36.5509 14.5702 35.2523 14.5702 33.8663C14.5702 33.6563 14.5792 33.4484 14.5966 33.2429C13.7216 33.6144 12.759 33.8201 11.7484 33.8201C11.2427 33.8201 10.7479 33.7684 10.2694 33.6698C9.70596 33.5536 9.34337 33.0026 9.45954 32.4391C9.57572 31.8757 10.1267 31.5132 10.6901 31.6293C11.0309 31.6995 11.3848 31.7367 11.7484 31.7367C13.4146 31.7367 14.898 30.9543 15.8515 29.7368C15.9224 29.6338 15.9958 29.5327 16.0719 29.4335C16.6306 28.6036 16.9568 27.6041 16.9568 26.5284C16.9568 23.6518 14.6249 21.3201 11.7484 21.3201C10.2191 21.3201 8.84485 21.9779 7.89056 23.0292C7.5039 23.4552 6.84513 23.487 6.41914 23.1004C5.99316 22.7137 5.96128 22.055 6.34793 21.629C7.33729 20.539 8.65422 19.7488 10.1433 19.4141C9.2009 18.3462 8.56636 17.0001 8.37833 15.5145C8.30609 14.9438 8.71021 14.4226 9.28096 14.3503C9.8517 14.2781 10.3729 14.6821 10.4452 15.253C10.7697 17.8164 12.96 19.7993 15.612 19.7993C18.4824 19.7993 20.8105 17.4773 20.8203 14.6091L20.8202 14.5911L20.8203 14.573C20.8132 12.5018 19.5973 10.7133 17.8367 9.8801C17.3166 9.63401 17.0946 9.01297 17.3406 8.49296C17.5867 7.97296 18.2077 7.7509 18.7278 7.99698C20.0304 8.61342 21.1219 9.60524 21.862 10.8333C22.6253 9.5666 23.7626 8.55122 25.12 7.93981C25.6445 7.70354 26.2612 7.93724 26.4975 8.46177ZM21.862 25.0107C22.7245 25.0107 23.4237 24.3114 23.4237 23.4489C23.4237 22.5863 22.7245 21.8871 21.862 21.8871C20.9995 21.8871 20.3002 22.5863 20.3002 23.4489C20.3002 24.3114 20.9995 25.0107 21.862 25.0107Z" fill="#025F96"/>
</svg>
