<svg width="50" height="50" viewBox="0 0 50 50" fill="none" xmlns="http://www.w3.org/2000/svg">
<path fill-rule="evenodd" clip-rule="evenodd" d="M12.6602 18.7497C12.6602 12.4214 18.1849 7.29134 24.9999 7.29134C31.8149 7.29134 37.3395 12.4214 37.3395 18.7497C37.3395 22.7152 35.171 26.2108 31.87 28.2695C29.0699 30.0156 26.1217 32.7642 26.1217 36.3656V36.458C26.1217 39.9098 23.1082 42.708 19.3909 42.708C15.6736 42.708 12.6602 39.9098 12.6602 36.458V34.3747H10.4167V36.458C10.4167 41.0604 14.4346 44.7913 19.3909 44.7913C24.3473 44.7913 28.3652 41.0604 28.3652 36.458V36.3656C28.3652 33.8617 30.4625 31.6568 33.1208 29.9989C37.0159 27.5699 39.5831 23.4384 39.5831 18.7497C39.5831 11.2708 33.054 5.20801 24.9999 5.20801C16.9458 5.20801 10.4167 11.2708 10.4167 18.7497H12.6602ZM23.9583 14.583C21.9295 14.583 20.2833 15.9524 19.8842 17.7283L19.9131 17.7298C20.7605 17.7727 21.911 17.8933 23.0779 18.2126C24.2356 18.5293 25.4861 19.0621 26.4601 19.9798C27.4651 20.9267 28.125 22.239 28.125 23.9659C28.125 23.9975 28.1235 24.0289 28.1207 24.0603C27.9682 25.7363 27.5578 27.0181 26.9366 27.979C26.3057 28.9549 25.4926 29.5447 24.6428 29.8789C23.8118 30.206 22.978 30.2765 22.3001 30.2765C21.9593 30.2765 21.6448 30.2584 21.3858 30.242L21.2828 30.2353C21.1584 30.2273 21.0568 30.2207 20.9704 30.2165C20.9577 30.2384 20.9432 30.2649 20.9269 30.2965C20.8216 30.5015 20.7421 30.7175 20.6387 30.9987C20.5721 31.1799 20.4954 31.3882 20.3955 31.6381C20.1769 32.185 19.8633 32.8651 19.3359 33.4082C18.7699 33.991 17.9988 34.3747 16.9909 34.3747C16.1181 34.3747 15.3948 34.1743 14.8276 33.7862C14.2578 33.3967 13.9317 32.8768 13.7537 32.3897C13.5795 31.9134 13.5417 31.4576 13.5417 31.1376C13.5417 30.9739 13.5516 30.8357 13.5622 30.7347C13.5675 30.6838 13.573 30.6417 13.5777 30.6096C13.5801 30.5934 13.5822 30.5799 13.5841 30.5688L13.5865 30.5543L13.5875 30.5485L13.5879 30.546L13.5881 30.5449C13.5882 30.5443 13.5883 30.5437 14.613 30.731C15.6377 30.9183 15.6378 30.9178 15.6379 30.9173L15.6384 30.9145L15.639 30.9115L15.6395 30.9082C15.6395 30.9087 15.6392 30.9103 15.639 30.9115C15.6381 30.9176 15.6364 30.9307 15.6343 30.951C15.6299 30.9922 15.625 31.0573 15.625 31.1376C15.625 31.3055 15.6466 31.5001 15.7103 31.6744C15.77 31.8378 15.86 31.9684 16.0037 32.0667C16.1497 32.1665 16.4371 32.2913 16.9909 32.2913C17.4099 32.2913 17.6494 32.1546 17.8413 31.9569C18.0719 31.7194 18.2635 31.3586 18.461 30.8647C18.509 30.7449 18.5625 30.601 18.62 30.4464C18.7557 30.0811 18.9139 29.6557 19.0741 29.3442C19.109 29.2761 19.1501 29.201 19.1981 29.1224C19.7782 27.6403 20.6746 25.0442 20.3125 23.958C20.0702 23.231 19.6024 22.5042 19.1714 21.9345C18.6457 21.494 18.2456 21.0699 18.0042 20.5609C17.7059 19.9323 17.7071 19.2749 17.7082 18.6708L17.7083 18.5631C17.7083 15.1788 20.5427 12.4997 23.9583 12.4997C27.374 12.4997 30.2083 15.1788 30.2083 18.5631H28.125C28.125 16.4004 26.2956 14.583 23.9583 14.583ZM21.0337 30.1238C21.0337 30.1244 21.0305 30.1283 21.0242 30.1343C21.0304 30.1263 21.0337 30.1234 21.0337 30.1238Z" fill="#025F96"/>
</svg>
