<svg width="50" height="50" viewBox="0 0 50 50" fill="none" xmlns="http://www.w3.org/2000/svg">
<path fill-rule="evenodd" clip-rule="evenodd" d="M25 13.542C27.5889 13.542 29.6875 11.4433 29.6875 8.85449C29.6875 6.26566 27.5889 4.16699 25 4.16699C22.4111 4.16699 20.3125 6.26566 20.3125 8.85449C20.3125 11.4433 22.4111 13.542 25 13.542ZM39.5001 16.0841C39.8221 17.1887 39.1876 18.3452 38.0829 18.6671C35.6085 19.3882 33.3728 19.9313 31.25 20.2932V32.2862V32.292V43.7503C31.25 44.8642 30.3739 45.7811 29.261 45.8316C28.1483 45.882 27.1927 45.0482 27.0919 43.939L26.0502 32.4806C26.0445 32.4176 26.0417 32.3547 26.0417 32.292H23.9583C23.9583 32.3547 23.9555 32.4176 23.9498 32.4806L22.9081 43.939C22.8073 45.0482 21.8517 45.882 20.739 45.8316C19.6263 45.7811 18.75 44.8642 18.75 43.7503V20.2548C16.6327 19.8897 14.405 19.3576 11.943 18.6745C10.8343 18.3669 10.1849 17.2187 10.4925 16.11C10.8002 15.0013 11.9483 14.3519 13.0571 14.6595C17.8574 15.9915 21.4644 16.6508 25.0091 16.6667C28.5466 16.6825 32.1445 16.0578 36.9171 14.6669C38.0218 14.3449 39.1782 14.9794 39.5001 16.0841Z" fill="#025F96"/>
</svg>
