<svg width="20" height="20" viewBox="0 0 20 20" fill="none" xmlns="http://www.w3.org/2000/svg">
<path fill-rule="evenodd" clip-rule="evenodd" d="M7.84846 5.38416C7.94846 6.01416 8.09692 6.61109 8.29077 6.98724C8.44308 7.2834 8.74154 7.65955 9.15077 8.06955C9.43154 8.35032 9.72923 8.61263 10 8.8357C10.2708 8.61263 10.5692 8.35032 10.8492 8.06955C11.2585 7.65955 11.5569 7.2834 11.7092 6.98724C11.9031 6.61109 12.0508 6.01416 12.1515 5.38416H7.84846ZM7.33923 3.8457C6.69 3.8457 6.17154 4.38186 6.24692 5.02724C6.34308 5.85493 6.53769 6.94263 6.92308 7.69186C7.44 8.6957 8.62923 9.72493 9.36923 10.3019C9.74231 10.5942 10.2577 10.5942 10.6308 10.3019C11.3708 9.72493 12.56 8.6957 13.0769 7.69186C13.4623 6.9434 13.6569 5.85493 13.7538 5.02724C13.8285 4.38109 13.31 3.8457 12.6608 3.8457H7.33923Z" fill="#BC6A00"/>
<path fill-rule="evenodd" clip-rule="evenodd" d="M12.1515 14.6156C12.0515 13.9856 11.9031 13.3887 11.7092 13.0125C11.5569 12.7171 11.2585 12.3395 10.8492 11.9302C10.5782 11.6618 10.2948 11.4062 9.99999 11.1641C9.72922 11.3871 9.43076 11.6495 9.15076 11.9302C8.74153 12.3395 8.44307 12.7171 8.29076 13.0125C8.09691 13.3887 7.94922 13.9856 7.84845 14.6156H12.1515ZM12.6608 16.1541C13.31 16.1541 13.8285 15.6179 13.7531 14.9733C13.6569 14.1448 13.4623 13.0564 13.0769 12.3079C12.56 11.3041 11.3708 10.2748 10.6308 9.69791C10.451 9.55642 10.2288 9.47949 9.99999 9.47949C9.77119 9.47949 9.54903 9.55642 9.36922 9.69791C8.62922 10.2748 7.43999 11.3041 6.92307 12.3079C6.53768 13.0564 6.34307 14.1448 6.24614 14.9733C6.17153 15.6179 6.68999 16.1541 7.33922 16.1541H12.6608Z" fill="#BC6A00"/>
<path d="M7.69232 14.4234C7.69232 14.4234 9.23078 13.2695 10 13.2695C10.7692 13.2695 12.3077 14.4234 12.3077 14.4234V14.808H7.69232V14.4234Z" fill="#BC6A00"/>
<path fill-rule="evenodd" clip-rule="evenodd" d="M5.38461 4.23114C5.38461 4.02713 5.46566 3.83148 5.60992 3.68722C5.75417 3.54296 5.94983 3.46191 6.15384 3.46191H13.8462C14.0502 3.46191 14.2458 3.54296 14.3901 3.68722C14.5343 3.83148 14.6154 4.02713 14.6154 4.23114C14.6154 4.43516 14.5343 4.63081 14.3901 4.77507C14.2458 4.91933 14.0502 5.00038 13.8462 5.00038H6.15384C5.94983 5.00038 5.75417 4.91933 5.60992 4.77507C5.46566 4.63081 5.38461 4.43516 5.38461 4.23114ZM5.38461 15.7696C5.38461 15.5656 5.46566 15.3699 5.60992 15.2257C5.75417 15.0814 5.94983 15.0004 6.15384 15.0004H13.8462C14.0502 15.0004 14.2458 15.0814 14.3901 15.2257C14.5343 15.3699 14.6154 15.5656 14.6154 15.7696C14.6154 15.9736 14.5343 16.1693 14.3901 16.3135C14.2458 16.4578 14.0502 16.5388 13.8462 16.5388H6.15384C5.94983 16.5388 5.75417 16.4578 5.60992 16.3135C5.46566 16.1693 5.38461 15.9736 5.38461 15.7696Z" fill="#BC6A00"/>
<path fill-rule="evenodd" clip-rule="evenodd" d="M10 18.4615C14.6731 18.4615 18.4615 14.6731 18.4615 10C18.4615 5.32692 14.6731 1.53846 10 1.53846C5.32692 1.53846 1.53846 5.32692 1.53846 10C1.53846 14.6731 5.32692 18.4615 10 18.4615ZM10 20C15.5231 20 20 15.5231 20 10C20 4.47692 15.5231 0 10 0C4.47692 0 0 4.47692 0 10C0 15.5231 4.47692 20 10 20Z" fill="#BC6A00"/>
</svg>
