<svg width="22" height="22" viewBox="0 0 22 22" fill="none" xmlns="http://www.w3.org/2000/svg">
<path d="M11 19.25C9.075 19.25 7.37153 18.6658 5.88958 17.4973C4.40764 16.3289 3.44514 14.8353 3.00208 13.0167C2.94097 12.7875 2.98681 12.5776 3.13958 12.3869C3.29236 12.1962 3.49861 12.0853 3.75833 12.0542C4.00278 12.0236 4.22431 12.0694 4.42292 12.1917C4.62153 12.3139 4.75903 12.4972 4.83542 12.7417C5.20208 14.1167 5.95833 15.2396 7.10417 16.1104C8.25 16.9813 9.54861 17.4167 11 17.4167C12.7875 17.4167 14.304 16.7942 15.5494 15.5494C16.7949 14.3046 17.4173 12.7881 17.4167 11C17.4161 9.21189 16.7936 7.69572 15.5494 6.4515C14.3052 5.20728 12.7887 4.58456 11 4.58333C9.94583 4.58333 8.96042 4.82778 8.04375 5.31667C7.12708 5.80556 6.35556 6.47778 5.72917 7.33333H7.33333C7.59306 7.33333 7.81092 7.42133 7.98692 7.59733C8.16292 7.77333 8.25061 7.99089 8.25 8.25C8.24939 8.50911 8.16139 8.72697 7.986 8.90358C7.81061 9.08019 7.59306 9.16789 7.33333 9.16667H3.66667C3.40694 9.16667 3.18939 9.07867 3.014 8.90267C2.83861 8.72667 2.75061 8.50911 2.75 8.25V4.58333C2.75 4.32361 2.838 4.10606 3.014 3.93067C3.19 3.75528 3.40756 3.66728 3.66667 3.66667C3.92578 3.66606 4.14364 3.75406 4.32025 3.93067C4.49686 4.10728 4.58456 4.32483 4.58333 4.58333V5.82083C5.3625 4.84306 6.31369 4.08681 7.43692 3.55208C8.56014 3.01736 9.74783 2.75 11 2.75C12.1458 2.75 13.2192 2.96786 14.2203 3.40358C15.2212 3.83931 16.0921 4.42719 16.8328 5.16725C17.5734 5.90731 18.1616 6.77814 18.5973 7.77975C19.0331 8.78136 19.2506 9.85478 19.25 11C19.2494 12.1452 19.0318 13.2186 18.5973 14.2203C18.1628 15.2219 17.5746 16.0927 16.8328 16.8328C16.0909 17.5728 15.22 18.161 14.2203 18.5973C13.2205 19.0337 12.1471 19.2512 11 19.25ZM11.9167 10.6333L14.2083 12.925C14.3764 13.0931 14.4604 13.3069 14.4604 13.5667C14.4604 13.8264 14.3764 14.0403 14.2083 14.2083C14.0403 14.3764 13.8264 14.4604 13.5667 14.4604C13.3069 14.4604 13.0931 14.3764 12.925 14.2083L10.3583 11.6417C10.2667 11.55 10.1979 11.447 10.1521 11.3328C10.1062 11.2185 10.0833 11.0999 10.0833 10.9771V7.33333C10.0833 7.07361 10.1713 6.85606 10.3473 6.68067C10.5233 6.50528 10.7409 6.41728 11 6.41667C11.2591 6.41606 11.477 6.50406 11.6536 6.68067C11.8302 6.85728 11.9179 7.07483 11.9167 7.33333V10.6333Z" fill="white"/>
</svg>
